<?xml version="1.0" standalone="no"?>
<!DOCTYPE svg PUBLIC "-//W3C//DTD SVG 20010904//EN"
 "http://www.w3.org/TR/2001/REC-SVG-20010904/DTD/svg10.dtd">
<svg version="1.0" xmlns="http://www.w3.org/2000/svg"
 width="3000.000000pt" height="2000.000000pt" viewBox="0 0 3000.000000 2000.000000"
 preserveAspectRatio="xMidYMid meet">

<g transform="translate(0.000000,2000.000000) scale(0.100000,-0.100000)"
fill="#000000" stroke="none">
<path d="M0 10000 l0 -10000 15000 0 15000 0 0 10000 0 10000 -15000 0 -15000
0 0 -10000z m20442 8190 c29 -11 59 -29 66 -40 13 -21 8 -22 -59 -4 -13 4 -15
-1 -11 -21 3 -19 0 -25 -13 -25 -13 0 -16 -7 -13 -30 3 -22 1 -27 -7 -20 -7 5
-14 7 -18 4 -3 -3 -11 13 -18 36 -10 33 -15 39 -23 28 -6 -8 -18 -15 -27 -15
-14 0 -14 4 0 44 9 24 22 43 28 43 7 0 13 5 13 10 0 15 23 12 82 -10z m5058
-1558 l12 -47 25 43 c42 70 64 51 31 -27 -11 -28 -18 -54 -15 -57 3 -4 28 -10
54 -15 26 -5 54 -16 62 -24 14 -13 7 -15 -61 -15 l-76 0 5 -59 c4 -43 2 -65
-10 -81 -14 -20 -15 -17 -27 64 l-13 85 -78 32 c-44 17 -77 35 -74 39 3 5 -1
11 -7 13 -28 12 19 6 72 -8 30 -8 59 -15 64 -15 8 0 1 73 -10 112 -4 12 0 15
15 11 13 -3 23 -20 31 -51z m-7443 -3720 c-3 -17 2 -44 13 -70 21 -47 14 -59
-21 -34 -13 9 -35 17 -48 17 -18 0 -25 6 -26 23 -1 13 4 26 10 30 7 4 20 19
30 35 24 37 49 37 42 -1z m-4480 -979 c2 -6 -10 -14 -26 -18 -17 -4 -31 -8
-31 -10 0 -1 7 -19 15 -38 17 -42 19 -61 5 -52 -5 3 -10 0 -10 -7 0 -21 -59
75 -62 102 -2 18 3 25 22 31 35 10 83 6 87 -8z m1424 -3024 c18 -18 19 -23 6
-42 -10 -15 -25 -22 -46 -22 -32 0 -51 22 -27 31 8 3 11 15 8 30 -3 19 0 24
17 24 11 0 30 -9 42 -21z m8538 -1982 c13 -38 25 -47 34 -24 3 6 8 -3 12 -20
6 -28 13 -33 44 -39 20 -3 51 -11 68 -17 48 -16 20 -27 -58 -22 l-67 5 -6 -44
c-7 -47 -36 -73 -36 -33 0 46 -14 51 -58 22 -23 -15 -46 -24 -51 -20 -6 3 -8
0 -5 -8 3 -8 -2 -17 -12 -21 -14 -5 -15 -4 -4 9 7 8 9 15 5 15 -4 0 -2 7 5 15
7 8 17 12 23 8 5 -3 7 -1 4 4 -4 6 9 25 27 41 l35 30 -62 19 c-33 10 -53 19
-44 21 10 2 14 8 11 14 -4 6 1 8 12 5 11 -4 33 -9 49 -13 l30 -7 -40 48 c-22
27 -33 45 -25 40 8 -5 21 -10 28 -11 8 -2 22 -10 32 -19 17 -16 18 -15 14 25
-3 34 -1 39 10 28 7 -8 19 -30 25 -51z m4764 -624 c-7 -2 -13 -9 -13 -14 0 -6
5 -7 11 -3 8 5 10 0 6 -17 -19 -80 -19 -100 -1 -120 26 -28 27 -52 3 -46 -18
5 -19 -1 -20 -86 -1 -51 -1 -95 0 -99 0 -4 -6 -5 -13 -2 -8 3 -12 12 -9 20 3
8 0 14 -6 14 -7 0 -11 24 -11 64 0 69 -8 83 -38 67 -15 -8 -19 -6 -19 7 0 9 6
25 13 36 7 10 10 25 7 32 -3 8 -1 14 5 14 16 0 49 60 57 103 5 25 12 37 24 36
10 0 11 -2 4 -6z m-18706 -418 c4 -4 3 -5 -3 -2 -6 4 -23 -4 -37 -17 -14 -13
-44 -34 -67 -47 -22 -12 -40 -25 -40 -28 0 -3 27 -23 60 -45 33 -21 60 -40 60
-43 0 -2 -5 -1 -12 3 -8 5 -9 2 -5 -9 5 -13 -11 -8 -62 18 -69 34 -69 34 -75
12 -3 -12 -6 -35 -6 -52 0 -28 -19 -72 -21 -50 0 6 -4 1 -9 -10 -10 -24 -13
110 -4 165 6 32 12 38 83 70 42 19 82 34 89 34 6 -1 12 2 12 6 0 10 27 7 37
-5z m10997 -1384 c8 -12 -51 -61 -67 -55 -7 2 -17 -6 -22 -18 -6 -12 -16 -23
-23 -24 -7 -1 -8 0 -2 3 5 2 10 9 10 14 0 6 -4 7 -10 4 -6 -3 -7 1 -4 9 3 9
10 16 16 16 5 0 6 6 1 13 -16 25 -12 37 8 26 14 -7 25 -6 41 6 25 17 44 19 52
6z m7850 -2937 c6 -35 3 -43 -34 -84 -23 -25 -57 -69 -77 -99 -30 -46 -37 -51
-45 -36 -8 13 -3 27 20 58 16 23 37 57 47 76 l17 34 -95 -5 c-74 -4 -97 -2
-101 8 -5 14 -2 15 134 34 41 6 76 13 79 16 3 3 7 48 9 102 6 130 25 143 33
23 4 -49 10 -106 13 -127z m-11719 -34 c7 -34 8 -34 36 -20 26 15 44 3 27 -18
-10 -12 -10 -16 -1 -19 10 -4 9 -8 -1 -19 -8 -8 -19 -14 -25 -14 -6 0 -11 -9
-11 -19 0 -14 -5 -18 -20 -14 -11 3 -20 9 -20 14 0 5 -9 9 -20 9 -15 0 -20 7
-20 25 0 14 -4 25 -10 25 -5 0 -10 7 -10 16 0 11 6 15 20 11 17 -4 20 0 20 24
0 39 26 38 35 -1z m11558 -201 c4 -16 3 -18 -9 -8 -7 6 -11 15 -8 20 8 13 11
11 17 -12z"/>
<path d="M23450 6936 c0 -2 8 -10 18 -17 15 -13 16 -12 3 4 -13 16 -21 21 -21
13z"/>
</g>
</svg>
